ffmpeg started on 2025-06-05 at 20:58:48
Report written to "D:\Convert\FFMetrics\reports\psnr_report-6.txt"
Log level: 32
Command line:
ffmpeg -hide_banner -nostdin -i "G:\\\xc0\xed\xe8\xec\xe5\\\xce\xed\xe3\xee\xe8\xed\xe3\xe8\\!_36_\xce\xf1\xe5\xed\xfc_2024\\DreamCast\\\xcd\xe5\xe7\xed\xe0\xea\xee\xec\xf6\xfb \xe2 \xe4\xf0\xf3\xe3\xee\xe9 \xe6\xe8\xe7\xed\xe8\\[DC] Raise wa Tanin ga Ii - 10_Telegram_HEVC.mkv" -i "G:\\\xc0\xed\xe8\xec\xe5\\\xce\xed\xe3\xee\xe8\xed\xe3\xe8\\!_36_\xce\xf1\xe5\xed\xfc_2024\\DreamCast\\\xcd\xe5\xe7\xed\xe0\xea\xee\xec\xf6\xfb \xe2 \xe4\xf0\xf3\xe3\xee\xe9 \xe6\xe8\xe7\xed\xe8\\[DC] Raise wa Tanin ga Ii - 10_Telegram.mp4" -lavfi "[0:v]settb=AVTB,setpts=PTS-STARTPTS,format=pix_fmts=yuv420p10,fps=24000/1001,scale=1920:1080:flags=bicubic[main];[1:v]settb=AVTB,setpts=PTS-STARTPTS,format=pix_fmts=yuv420p,fps=24000/1001,scale=1920:1080:flags=bicubic[ref];[main][ref]psnr=eof_action=endall:stats_file='D\\:/Convert/FFMetrics/logs/psnr_logfile-6.txt'" -f null -
Input #0, matroska,webm, from 'G:\Аниме\Онгоинги\!_36_Осень_2024\DreamCast\Незнакомцы в другой жизни\[DC] Raise wa Tanin ga Ii - 10_Telegram_HEVC.mkv':
  Metadata:
    COMPATIBLE_BRANDS: isomiso2avc1mp41
    MAJOR_BRAND     : isom
    MINOR_VERSION   : 512
    ENCODER         : Lavf61.7.100
  Duration: 00:23:46.77, start: -0.021000, bitrate: 747 kb/s
  Stream #0:0: Video: hevc (Main 10), yuv420p10le(tv, bt709, progressive), 1920x1080 [SAR 1:1 DAR 16:9], 23.98 fps, 23.98 tbr, 1k tbn (default)
      Metadata:
        HANDLER_NAME    : VideoHandler
        VENDOR_ID       : [0][0][0][0]
        ENCODER         : Lavc61.19.100 libx265
        BPS             : 551038
        DURATION        : 00:23:46.549708333
        NUMBER_OF_FRAMES: 34203
        NUMBER_OF_BYTES : 98260408
        _STATISTICS_WRITING_APP: mkvpropedit v66.0.0 ('Josie') 64-bit
        _STATISTICS_WRITING_DATE_UTC: 2025-05-31 16:22:13
        _STATISTICS_TAGS: BPS DURATION NUMBER_OF_FRAMES NUMBER_OF_BYTES
  Stream #0:1: Audio: aac (LC), 48000 Hz, stereo, fltp (default)
      Metadata:
        HANDLER_NAME    : SoundHandler
        VENDOR_ID       : [0][0][0][0]
        ENCODER         : Lavc61.19.100 aac
        BPS             : 192681
        DURATION        : 00:23:46.773000000
        NUMBER_OF_FRAMES: 66881
        NUMBER_OF_BYTES : 34364056
        _STATISTICS_WRITING_APP: mkvpropedit v66.0.0 ('Josie') 64-bit
        _STATISTICS_WRITING_DATE_UTC: 2025-05-31 16:22:13
        _STATISTICS_TAGS: BPS DURATION NUMBER_OF_FRAMES NUMBER_OF_BYTES
Input #1, mov,mp4,m4a,3gp,3g2,mj2, from 'G:\Аниме\Онгоинги\!_36_Осень_2024\DreamCast\Незнакомцы в другой жизни\[DC] Raise wa Tanin ga Ii - 10_Telegram.mp4':
  Metadata:
    major_brand     : isom
    minor_version   : 512
    compatible_brands: isomiso2avc1mp41
    encoder         : Lavf61.1.100
  Duration: 00:23:46.72, start: 0.000000, bitrate: 3789 kb/s
  Stream #1:0[0x1](und): Video: h264 (High) (avc1 / 0x31637661), yuv420p(tv, bt709, progressive), 1920x1080 [SAR 1:1 DAR 16:9], 3641 kb/s, 23.98 fps, 23.98 tbr, 24k tbn (default)
      Metadata:
        handler_name    : VideoHandler
        vendor_id       : [0][0][0][0]
        encoder         : Lavc61.3.100 h264_qsv
  Stream #1:1[0x2](und): Audio: aac (HE-AACv2) (mp4a / 0x6134706D), 48000 Hz, stereo, fltp, 144 kb/s (default)
      Metadata:
        handler_name    : SoundHandler
        vendor_id       : [0][0][0][0]
Stream mapping:
  Stream #0:0 (hevc) -> settb:default
  Stream #1:0 (h264) -> settb:default
  psnr:default -> Stream #0:0 (wrapped_avframe)
  Stream #0:1 -> #0:1 (aac (native) -> pcm_s16le (native))
Output #0, null, to 'pipe:':
  Metadata:
    COMPATIBLE_BRANDS: isomiso2avc1mp41
    MAJOR_BRAND     : isom
    MINOR_VERSION   : 512
    encoder         : Lavf61.7.100
  Stream #0:0: Video: wrapped_avframe, yuv420p10le(tv, bt709, progressive), 1920x1080 [SAR 1:1 DAR 16:9], q=2-31, 200 kb/s, 23.98 fps, 23.98 tbn
      Metadata:
        encoder         : Lavc61.19.100 wrapped_avframe
  Stream #0:1: Audio: pcm_s16le, 48000 Hz, stereo, s16, 1536 kb/s (default)
      Metadata:
        HANDLER_NAME    : SoundHandler
        VENDOR_ID       : [0][0][0][0]
        _STATISTICS_TAGS: BPS DURATION NUMBER_OF_FRAMES NUMBER_OF_BYTES
        BPS             : 192681
        DURATION        : 00:23:46.773000000
        NUMBER_OF_FRAMES: 66881
        NUMBER_OF_BYTES : 34364056
        _STATISTICS_WRITING_APP: mkvpropedit v66.0.0 ('Josie') 64-bit
        _STATISTICS_WRITING_DATE_UTC: 2025-05-31 16:22:13
        encoder         : Lavc61.19.100 pcm_s16le
frame=  160 fps=0.0 q=-0.0 size=N/A time=00:00:06.67 bitrate=N/A speed=12.9x    frame=  383 fps=373 q=-0.0 size=N/A time=00:00:15.97 bitrate=N/A speed=15.5x    frame=  614 fps=396 q=-0.0 size=N/A time=00:00:25.60 bitrate=N/A speed=16.5x    frame=  852 fps=414 q=-0.0 size=N/A time=00:00:35.53 bitrate=N/A speed=17.3x    frame= 1111 fps=430 q=-0.0 size=N/A time=00:00:46.33 bitrate=N/A speed=  18x    frame= 1345 fps=433 q=-0.0 size=N/A time=00:00:56.09 bitrate=N/A speed=18.1x    frame= 1556 fps=431 q=-0.0 size=N/A time=00:01:04.89 bitrate=N/A speed=  18x    frame= 1825 fps=441 q=-0.0 size=N/A time=00:01:16.11 bitrate=N/A speed=18.4x    frame= 2042 fps=440 q=-0.0 size=N/A time=00:01:25.16 bitrate=N/A speed=18.4x    frame= 2257 fps=437 q=-0.0 size=N/A time=00:01:34.13 bitrate=N/A speed=18.2x    frame= 2472 fps=436 q=-0.0 size=N/A time=00:01:43.10 bitrate=N/A speed=18.2x    frame= 2691 fps=435 q=-0.0 size=N/A time=00:01:52.23 bitrate=N/A speed=18.1x    frame= 2939 fps=439 q=-0.0 size=N/A time=00:02:02.58 bitrate=N/A speed=18.3x    frame= 3148 fps=436 q=-0.0 size=N/A time=00:02:11.29 bitrate=N/A speed=18.2x    frame= 3366 fps=435 q=-0.0 size=N/A time=00:02:20.39 bitrate=N/A speed=18.2x    frame= 3601 fps=436 q=-0.0 size=N/A time=00:02:30.19 bitrate=N/A speed=18.2x    frame= 3842 fps=438 q=-0.0 size=N/A time=00:02:40.24 bitrate=N/A speed=18.3x    frame= 4088 fps=440 q=-0.0 size=N/A time=00:02:50.50 bitrate=N/A speed=18.4x    frame= 4344 fps=443 q=-0.0 size=N/A time=00:03:01.18 bitrate=N/A speed=18.5x    frame= 4603 fps=446 q=-0.0 size=N/A time=00:03:11.98 bitrate=N/A speed=18.6x    frame= 4870 fps=450 q=-0.0 size=N/A time=00:03:23.11 bitrate=N/A speed=18.7x    frame= 5106 fps=450 q=-0.0 size=N/A time=00:03:32.96 bitrate=N/A speed=18.8x    frame= 5360 fps=452 q=-0.0 size=N/A time=00:03:43.55 bitrate=N/A speed=18.9x    frame= 5636 fps=455 q=-0.0 size=N/A time=00:03:55.06 bitrate=N/A speed=  19x    frame= 5898 fps=458 q=-0.0 size=N/A time=00:04:05.99 bitrate=N/A speed=19.1x    frame= 6169 fps=460 q=-0.0 size=N/A time=00:04:17.29 bitrate=N/A speed=19.2x    frame= 6438 fps=462 q=-0.0 size=N/A time=00:04:28.51 bitrate=N/A speed=19.3x    frame= 6649 fps=461 q=-0.0 size=N/A time=00:04:37.31 bitrate=N/A speed=19.2x    frame= 6872 fps=460 q=-0.0 size=N/A time=00:04:46.61 bitrate=N/A speed=19.2x    frame= 7134 fps=461 q=-0.0 size=N/A time=00:04:57.54 bitrate=N/A speed=19.2x    frame= 7400 fps=463 q=-0.0 size=N/A time=00:05:08.64 bitrate=N/A speed=19.3x    frame= 7664 fps=464 q=-0.0 size=N/A time=00:05:19.65 bitrate=N/A speed=19.4x    frame= 7924 fps=466 q=-0.0 size=N/A time=00:05:30.49 bitrate=N/A speed=19.4x    frame= 8176 fps=466 q=-0.0 size=N/A time=00:05:41.00 bitrate=N/A speed=19.5x    frame= 8422 fps=466 q=-0.0 size=N/A time=00:05:51.30 bitrate=N/A speed=19.5x    frame= 8680 fps=467 q=-0.0 size=N/A time=00:06:02.02 bitrate=N/A speed=19.5x    frame= 8949 fps=468 q=-0.0 size=N/A time=00:06:13.24 bitrate=N/A speed=19.5x    frame= 9220 fps=470 q=-0.0 size=N/A time=00:06:24.55 bitrate=N/A speed=19.6x    frame= 9480 fps=471 q=-0.0 size=N/A time=00:06:35.39 bitrate=N/A speed=19.6x    frame= 9750 fps=472 q=-0.0 size=N/A time=00:06:46.65 bitrate=N/A speed=19.7x    frame=10003 fps=472 q=-0.0 size=N/A time=00:06:57.20 bitrate=N/A speed=19.7x    frame=10259 fps=473 q=-0.0 size=N/A time=00:07:07.88 bitrate=N/A speed=19.7x    frame=10507 fps=473 q=-0.0 size=N/A time=00:07:18.22 bitrate=N/A speed=19.7x    frame=10756 fps=473 q=-0.0 size=N/A time=00:07:28.61 bitrate=N/A speed=19.7x    frame=11004 fps=473 q=-0.0 size=N/A time=00:07:38.95 bitrate=N/A speed=19.7x    frame=11266 fps=474 q=-0.0 size=N/A time=00:07:49.88 bitrate=N/A speed=19.8x    frame=11532 fps=475 q=-0.0 size=N/A time=00:08:00.98 bitrate=N/A speed=19.8x    frame=11771 fps=475 q=-0.0 size=N/A time=00:08:10.94 bitrate=N/A speed=19.8x    frame=12024 fps=475 q=-0.0 size=N/A time=00:08:21.50 bitrate=N/A speed=19.8x    frame=12300 fps=477 q=-0.0 size=N/A time=00:08:33.01 bitrate=N/A speed=19.9x    frame=12560 fps=477 q=-0.0 size=N/A time=00:08:43.85 bitrate=N/A speed=19.9x    frame=12811 fps=477 q=-0.0 size=N/A time=00:08:54.32 bitrate=N/A speed=19.9x    frame=13093 fps=478 q=-0.0 size=N/A time=00:09:06.08 bitrate=N/A speed=  20x    frame=13344 fps=479 q=-0.0 size=N/A time=00:09:16.55 bitrate=N/A speed=  20x    frame=13593 fps=479 q=-0.0 size=N/A time=00:09:26.94 bitrate=N/A speed=  20x    frame=13882 fps=480 q=-0.0 size=N/A time=00:09:38.99 bitrate=N/A speed=  20x    frame=14141 fps=481 q=-0.0 size=N/A time=00:09:49.79 bitrate=N/A speed=  20x    frame=14408 fps=481 q=-0.0 size=N/A time=00:10:00.93 bitrate=N/A speed=20.1x    frame=14664 fps=482 q=-0.0 size=N/A time=00:10:11.61 bitrate=N/A speed=20.1x    frame=14928 fps=482 q=-0.0 size=N/A time=00:10:22.62 bitrate=N/A speed=20.1x    frame=15167 fps=482 q=-0.0 size=N/A time=00:10:32.59 bitrate=N/A speed=20.1x    frame=15417 fps=482 q=-0.0 size=N/A time=00:10:43.01 bitrate=N/A speed=20.1x    frame=15693 fps=482 q=-0.0 size=N/A time=00:10:54.52 bitrate=N/A speed=20.1x    frame=15940 fps=483 q=-0.0 size=N/A time=00:11:04.83 bitrate=N/A speed=20.1x    frame=16215 fps=483 q=-0.0 size=N/A time=00:11:16.30 bitrate=N/A speed=20.2x    frame=16487 fps=484 q=-0.0 size=N/A time=00:11:27.64 bitrate=N/A speed=20.2x    frame=16770 fps=485 q=-0.0 size=N/A time=00:11:39.44 bitrate=N/A speed=20.2x    frame=17001 fps=484 q=-0.0 size=N/A time=00:11:49.08 bitrate=N/A speed=20.2x    frame=17181 fps=483 q=-0.0 size=N/A time=00:11:56.63 bitrate=N/A speed=20.1x    frame=17447 fps=483 q=-0.0 size=N/A time=00:12:07.68 bitrate=N/A speed=20.1x    frame=17715 fps=484 q=-0.0 size=N/A time=00:12:18.86 bitrate=N/A speed=20.2x    frame=17985 fps=484 q=-0.0 size=N/A time=00:12:30.12 bitrate=N/A speed=20.2x    frame=18237 fps=484 q=-0.0 size=N/A time=00:12:40.63 bitrate=N/A speed=20.2x    frame=18474 fps=484 q=-0.0 size=N/A time=00:12:50.51 bitrate=N/A speed=20.2x    frame=18715 fps=484 q=-0.0 size=N/A time=00:13:00.57 bitrate=N/A speed=20.2x    frame=18984 fps=484 q=-0.0 size=N/A time=00:13:11.79 bitrate=N/A speed=20.2x    frame=19232 fps=484 q=-0.0 size=N/A time=00:13:22.13 bitrate=N/A speed=20.2x    frame=19508 fps=485 q=-0.0 size=N/A time=00:13:33.64 bitrate=N/A speed=20.2x    frame=19791 fps=485 q=-0.0 size=N/A time=00:13:45.44 bitrate=N/A speed=20.2x    frame=20047 fps=486 q=-0.0 size=N/A time=00:13:56.12 bitrate=N/A speed=20.3x    frame=20311 fps=486 q=-0.0 size=N/A time=00:14:07.13 bitrate=N/A speed=20.3x    frame=20588 fps=486 q=-0.0 size=N/A time=00:14:18.69 bitrate=N/A speed=20.3x    frame=20832 fps=486 q=-0.0 size=N/A time=00:14:28.86 bitrate=N/A speed=20.3x    frame=21085 fps=486 q=-0.0 size=N/A time=00:14:39.42 bitrate=N/A speed=20.3x    frame=21343 fps=487 q=-0.0 size=N/A time=00:14:50.18 bitrate=N/A speed=20.3x    frame=21589 fps=486 q=-0.0 size=N/A time=00:15:00.44 bitrate=N/A speed=20.3x    frame=21841 fps=487 q=-0.0 size=N/A time=00:15:10.95 bitrate=N/A speed=20.3x    frame=22097 fps=487 q=-0.0 size=N/A time=00:15:21.62 bitrate=N/A speed=20.3x    frame=22350 fps=487 q=-0.0 size=N/A time=00:15:32.18 bitrate=N/A speed=20.3x    frame=22603 fps=487 q=-0.0 size=N/A time=00:15:42.73 bitrate=N/A speed=20.3x    frame=22832 fps=486 q=-0.0 size=N/A time=00:15:52.28 bitrate=N/A speed=20.3x    frame=23087 fps=486 q=-0.0 size=N/A time=00:16:02.92 bitrate=N/A speed=20.3x    frame=23298 fps=486 q=-0.0 size=N/A time=00:16:11.72 bitrate=N/A speed=20.3x    frame=23559 fps=486 q=-0.0 size=N/A time=00:16:22.60 bitrate=N/A speed=20.3x    frame=23813 fps=486 q=-0.0 size=N/A time=00:16:33.20 bitrate=N/A speed=20.3x    frame=24067 fps=486 q=-0.0 size=N/A time=00:16:43.79 bitrate=N/A speed=20.3x    frame=24319 fps=486 q=-0.0 size=N/A time=00:16:54.30 bitrate=N/A speed=20.3x    frame=24543 fps=485 q=-0.0 size=N/A time=00:17:03.64 bitrate=N/A speed=20.2x    frame=24768 fps=485 q=-0.0 size=N/A time=00:17:13.03 bitrate=N/A speed=20.2x    frame=25003 fps=485 q=-0.0 size=N/A time=00:17:22.83 bitrate=N/A speed=20.2x    frame=25281 fps=485 q=-0.0 size=N/A time=00:17:34.42 bitrate=N/A speed=20.2x    frame=25555 fps=486 q=-0.0 size=N/A time=00:17:45.85 bitrate=N/A speed=20.3x    frame=25805 fps=486 q=-0.0 size=N/A time=00:17:56.28 bitrate=N/A speed=20.3x    frame=26073 fps=486 q=-0.0 size=N/A time=00:18:07.46 bitrate=N/A speed=20.3x    frame=26331 fps=486 q=-0.0 size=N/A time=00:18:18.22 bitrate=N/A speed=20.3x    frame=26589 fps=486 q=-0.0 size=N/A time=00:18:28.98 bitrate=N/A speed=20.3x    frame=26839 fps=486 q=-0.0 size=N/A time=00:18:39.40 bitrate=N/A speed=20.3x    frame=27103 fps=486 q=-0.0 size=N/A time=00:18:50.42 bitrate=N/A speed=20.3x    frame=27367 fps=487 q=-0.0 size=N/A time=00:19:01.43 bitrate=N/A speed=20.3x    frame=27647 fps=487 q=-0.0 size=N/A time=00:19:13.11 bitrate=N/A speed=20.3x    frame=27920 fps=487 q=-0.0 size=N/A time=00:19:24.49 bitrate=N/A speed=20.3x    frame=28161 fps=487 q=-0.0 size=N/A time=00:19:34.54 bitrate=N/A speed=20.3x    frame=28420 fps=487 q=-0.0 size=N/A time=00:19:45.35 bitrate=N/A speed=20.3x    frame=28641 fps=487 q=-0.0 size=N/A time=00:19:54.56 bitrate=N/A speed=20.3x    frame=28902 fps=487 q=-0.0 size=N/A time=00:20:05.45 bitrate=N/A speed=20.3x    frame=29165 fps=487 q=-0.0 size=N/A time=00:20:16.42 bitrate=N/A speed=20.3x    frame=29399 fps=487 q=-0.0 size=N/A time=00:20:26.18 bitrate=N/A speed=20.3x    frame=29649 fps=487 q=-0.0 size=N/A time=00:20:36.61 bitrate=N/A speed=20.3x    frame=29923 fps=487 q=-0.0 size=N/A time=00:20:48.03 bitrate=N/A speed=20.3x    frame=30170 fps=487 q=-0.0 size=N/A time=00:20:58.34 bitrate=N/A speed=20.3x    frame=30422 fps=487 q=-0.0 size=N/A time=00:21:08.85 bitrate=N/A speed=20.3x    frame=30632 fps=487 q=-0.0 size=N/A time=00:21:17.60 bitrate=N/A speed=20.3x    frame=30862 fps=486 q=-0.0 size=N/A time=00:21:27.20 bitrate=N/A speed=20.3x    frame=31065 fps=485 q=-0.0 size=N/A time=00:21:35.66 bitrate=N/A speed=20.2x    frame=31274 fps=485 q=-0.0 size=N/A time=00:21:44.38 bitrate=N/A speed=20.2x    frame=31484 fps=484 q=-0.0 size=N/A time=00:21:53.14 bitrate=N/A speed=20.2x    frame=31723 fps=484 q=-0.0 size=N/A time=00:22:03.11 bitrate=N/A speed=20.2x    frame=31960 fps=484 q=-0.0 size=N/A time=00:22:12.99 bitrate=N/A speed=20.2x    frame=32200 fps=484 q=-0.0 size=N/A time=00:22:23.00 bitrate=N/A speed=20.2x    frame=32437 fps=484 q=-0.0 size=N/A time=00:22:32.89 bitrate=N/A speed=20.2x    frame=32646 fps=483 q=-0.0 size=N/A time=00:22:41.61 bitrate=N/A speed=20.1x    frame=32847 fps=482 q=-0.0 size=N/A time=00:22:49.99 bitrate=N/A speed=20.1x    frame=33039 fps=481 q=-0.0 size=N/A time=00:22:58.00 bitrate=N/A speed=20.1x    frame=33240 fps=481 q=-0.0 size=N/A time=00:23:06.38 bitrate=N/A speed=20.1x    frame=33390 fps=479 q=-0.0 size=N/A time=00:23:12.64 bitrate=N/A speed=  20x    frame=33575 fps=478 q=-0.0 size=N/A time=00:23:20.35 bitrate=N/A speed=  20x    frame=33736 fps=477 q=-0.0 size=N/A time=00:23:27.07 bitrate=N/A speed=19.9x    frame=33936 fps=477 q=-0.0 size=N/A time=00:23:35.41 bitrate=N/A speed=19.9x    frame=34179 fps=477 q=-0.0 size=N/A time=00:23:45.54 bitrate=N/A speed=19.9x    [Parsed_psnr_10 @ 000002864d0ac800] PSNR y:50.029735 u:51.378213 v:50.477537 average:50.302225 min:37.994034 max:inf
[out#0/null @ 000002863ffcf080] video:14697KiB audio:267524KiB subtitle:0KiB other streams:0KiB global headers:0KiB muxing overhead: unknown
frame=34203 fps=477 q=-0.0 Lsize=N/A time=00:23:46.55 bitrate=N/A speed=19.9x    
